<?xml version="1.0" encoding="utf-8"?>
<!-- Generator: Adobe Illustrator 17.1.0, SVG Export Plug-In . SVG Version: 6.00 Build 0)  -->
<!DOCTYPE svg PUBLIC "-//W3C//DTD SVG 1.1//EN" "http://www.w3.org/Graphics/SVG/1.1/DTD/svg11.dtd">
<svg version="1.1" xmlns="http://www.w3.org/2000/svg" xmlns:xlink="http://www.w3.org/1999/xlink" x="0px" y="0px"
	 viewBox="0 0 505.3 239.4" enable-background="new 0 0 505.3 239.4" xml:space="preserve">
<g id="n">
	<path fill="none" stroke="#FFFFFF" stroke-width="4" stroke-miterlimit="10" d="M485.7,47.4C475,37.6,461.5,34.8,455,34.2
		c-6.5-0.7-23.9-1.3-36.9,6.5c-1.8,1.1-3.5,2.2-4.9,3.3c-2.1,1.6-4.8-0.3-5.1-2.6v0c-0.2-1.7-1.2-3.3-3.2-3.3h-32.4
		c-1.8,0-3.2,1.4-3.2,3.2v134.1c0,1.8,1.4,3.2,3.2,3.2h32.4c1.8,0,3.2-1.4,3.2-3.2v-72.6c0-42.3,52.5-37,52.5-10.2v82.8
		c0,1.8,1.4,3.2,3.2,3.2h32.9c1.8,0,3.2-1.4,3.2-3.2V92.6C499.8,70.2,498.7,60.4,485.7,47.4z"/>
</g>
<g id="_x31_">
	<path fill="none" stroke="#FFFFFF" stroke-width="4" stroke-miterlimit="10" d="M296.9,33.9L315,7.7c0.5-0.9,1.5-1.3,2.5-1.3h33
		c1.6,0,3,1.3,3,3v166.3c0,1.6-1.3,3-3,3h-33.4c-1.6,0-3-1.3-3-3V41.3c0-1.6-1.3-3-3-3h-11.8C297.1,38.4,295.7,35.9,296.9,33.9z"/>
</g>
<g id="p">
	<path fill="none" stroke="#FFFFFF" stroke-width="4" stroke-miterlimit="10" d="M237.6,31.2c-14.1,0-23.1,5.2-29.6,12
		c-1.8,1.9-5.1,0.6-5.1-2V41c0-1.6-1.3-3-3-3H167c-1.6,0-3,1.3-3,3v189.6c0,1.6,1.3,3,3,3H200c1.6,0,3-1.3,3-3v-55.2
		c0-2.3,2.5-3.7,4.4-2.5c9,5.3,19.3,8.3,30.2,8.3c36.4,0,65.9-33.6,65.9-75S274,31.2,237.6,31.2z M234.7,143.2
		c-17.6,0-32-15.8-32-35.4s14.3-35.4,32-35.4c17.6,0,32,15.8,32,35.4S252.4,143.2,234.7,143.2z"/>
</g>
<g id="o">
	<g>
		<path fill="none" stroke="#FFFFFF" stroke-width="4" stroke-miterlimit="10" d="M150.6,128.1c-5,18.4-23.6,39.7-41.3,46.9
			c-21,8.6-44,6.1-61.7-1.6c-1.8-0.8-2.4-3-1.3-4.6l19.2-27.4c0.7-1,2-1.5,3.3-1.2c8.4,2.1,19.5,2.7,28.5-2
			c6.7-3.5,11.9-9.4,14.6-16.5c11.6-30.5-16.6-57.9-45.8-47c-6.8,2.5-15.3,9.7-18.4,16.3c-6.4,13.5-2,28.4,4.8,38.2
			c0.7,1.1,0.7,2.5,0,3.5L33.3,160c-1.1,1.6-3.4,1.8-4.7,0.4C10.6,142-0.2,113,8.5,83.6c6-20.2,21-36.7,40.5-44.7
			C108.5,14.5,167.2,66.6,150.6,128.1z"/>
	</g>
</g>
</svg>
